<svg xmlns="http://www.w3.org/2000/svg" version="1.1" xmlns:xlink="http://www.w3.org/1999/xlink" width="2666.7" height="2666.7"><svg version="1.1" viewBox="0 0 2666.7 2666.7" xmlns="http://www.w3.org/2000/svg" xmlns:xlink="http://www.w3.org/1999/xlink">
   <path transform="matrix(1.3333 0 0 -1.3333 133.39 1886.6)" d="m0 0c232.56 631.75 373.04 793.82 462 779.89 165.35-25.88 144.77-658.55 339.08-690.88 201.69-33.563 377.18 622.55 627.3 606.11 153.56-10.093 264.81-269.04 339.08-512.86" fill="none" stroke="currentcolor" stroke-dasharray="80, 120" stroke-linecap="round" stroke-miterlimit="10" stroke-width="80"></path>
   <path transform="matrix(1.3333 0 0 -1.3333 851.11 574.9)" d="m0 0c0-55.054-44.63-99.683-99.683-99.683-55.054 0-99.684 44.629-99.684 99.683 0 55.053 44.63 99.683 99.684 99.683 55.053 0 99.683-44.63 99.683-99.683" fill="currentcolor"></path>
   <path transform="matrix(1.3333 0 0 -1.3333 1337.1 2016)" d="m0 0c0-55.041-44.62-99.661-99.661-99.661-55.042 0-99.662 44.62-99.662 99.661s44.62 99.661 99.662 99.661c55.041 0 99.661-44.62 99.661-99.661" fill="currentcolor"></path>
   <path transform="matrix(1.3333 0 0 -1.3333 2148.9 964.85)" d="m0 0c0-55.378-44.893-100.27-100.27-100.27-55.377 0-100.27 44.893-100.27 100.27s44.893 100.27 100.27 100.27c55.378 0 100.27-44.893 100.27-100.27" fill="currentcolor"></path>
   <path transform="matrix(1.3333 0 0 -1.3333 2624.9 1693.9)" d="m0 0c0-55.883-45.302-101.18-101.18-101.18s-101.18 45.302-101.18 101.18 45.302 101.18 101.18 101.18 101.18-45.302 101.18-101.18" fill="currentcolor"></path>
</svg><style>@media (prefers-color-scheme: light) { :root { filter: contrast(1) brightness(0.1); } }
@media (prefers-color-scheme: dark) { :root { filter: contrast(0.3846153846153846) brightness(4.5); } }
</style></svg>